<svg width="33" height="33" fill="none" xmlns="http://www.w3.org/2000/svg"><g clip-path="url(#clip0_150:856)"><path d="M25.3 9.327c-1.92 0-3.733.746-5.027 2.04l-9.373 8.32a4.486 4.486 0 01-3.2 1.32A4.513 4.513 0 013.18 16.5a4.513 4.513 0 014.52-4.507c1.213 0 2.347.467 3.253 1.374L12.46 14.7l2.013-1.787-1.68-1.48A7.16 7.16 0 007.7 9.327C3.727 9.327.5 12.553.5 16.5s3.227 7.173 7.2 7.173c1.92 0 3.733-.746 5.027-2.04l9.373-8.32a4.486 4.486 0 013.2-1.32 4.513 4.513 0 014.52 4.507 4.513 4.513 0 01-4.52 4.507c-1.2 0-2.347-.467-3.253-1.374l-1.52-1.346-2.014 1.786 1.694 1.494A7.181 7.181 0 0025.3 23.66c3.973 0 7.2-3.213 7.2-7.173s-3.227-7.16-7.2-7.16z" fill="#323232"/></g><defs><clipPath id="clip0_150:856"><path fill="#fff" transform="translate(.5 .5)" d="M0 0h32v32H0z"/></clipPath></defs></svg>