<svg width="33" height="33" viewBox="0 0 33 33" fill="none" xmlns="http://www.w3.org/2000/svg">
<g clip-path="url(#clip0_150:856)">
<path d="M25.3 9.32666C23.38 9.32666 21.5667 10.0733 20.2733 11.3667L10.9 19.6867C10.0467 20.54 8.91333 21.0067 7.7 21.0067C5.20667 21.0067 3.18 18.9933 3.18 16.5C3.18 14.0067 5.20667 11.9933 7.7 11.9933C8.91333 11.9933 10.0467 12.46 10.9533 13.3667L12.46 14.7L14.4733 12.9133L12.7933 11.4333C11.4333 10.0733 9.62 9.32666 7.7 9.32666C3.72667 9.32666 0.5 12.5533 0.5 16.5C0.5 20.4467 3.72667 23.6733 7.7 23.6733C9.62 23.6733 11.4333 22.9267 12.7267 21.6333L22.1 13.3133C22.9533 12.46 24.0867 11.9933 25.3 11.9933C27.7933 11.9933 29.82 14.0067 29.82 16.5C29.82 18.9933 27.7933 21.0067 25.3 21.0067C24.1 21.0067 22.9533 20.54 22.0467 19.6333L20.5267 18.2867L18.5133 20.0733L20.2067 21.5667C21.5667 22.9133 23.3667 23.66 25.3 23.66C29.2733 23.66 32.5 20.4467 32.5 16.4867C32.5 12.5267 29.2733 9.32666 25.3 9.32666Z" fill="#323232"/>
</g>
<defs>
<clipPath id="clip0_150:856">
<rect width="32" height="32" fill="white" transform="translate(0.5 0.5)"/>
</clipPath>
</defs>
</svg>
