<svg width="33" height="33" viewBox="0 0 33 33" fill="none" xmlns="http://www.w3.org/2000/svg">
<path d="M16.5003 3.16675C9.14033 3.16675 3.16699 9.14008 3.16699 16.5001C3.16699 23.8601 9.14033 29.8334 16.5003 29.8334C23.8603 29.8334 29.8337 23.8601 29.8337 16.5001C29.8337 9.14008 23.8603 3.16675 16.5003 3.16675ZM18.3803 24.6201V27.1667H14.8203V24.5934C12.5403 24.1134 10.607 22.6467 10.4603 20.0601H13.0737C13.207 21.4601 14.167 22.5534 16.607 22.5534C19.2203 22.5534 19.807 21.2467 19.807 20.4334C19.807 19.3267 19.2203 18.2867 16.247 17.5801C12.9403 16.7801 10.6737 15.4201 10.6737 12.6867C10.6737 10.3934 12.527 8.90008 14.8203 8.40675V5.83341H18.3803V8.43341C20.8603 9.03341 22.1003 10.9134 22.1803 12.9534H19.567C19.5003 11.4734 18.7137 10.4601 16.607 10.4601C14.607 10.4601 13.407 11.3667 13.407 12.6467C13.407 13.7667 14.2737 14.5001 16.967 15.1934C19.6603 15.8867 22.5403 17.0467 22.5403 20.4067C22.527 22.8467 20.7003 24.1801 18.3803 24.6201Z" fill="white"/>
</svg>
