<svg width="425" height="856" fill="none" xmlns="http://www.w3.org/2000/svg"><rect x="14" y="11" width="397" height="834" rx="51" stroke="#AFAFAF" stroke-width="22"/><path d="M422 195h1.5a1.5 1.5 0 011.5 1.5v93a1.5 1.5 0 01-1.5 1.5H422v-96zM3 176H1.5a1.5 1.5 0 00-1.5 1.5v55a1.5 1.5 0 001.5 1.5H3v-58zm0 77H1.5a1.5 1.5 0 00-1.5 1.5v55a1.5 1.5 0 001.5 1.5H3v-58zm0-138H1.5a1.5 1.5 0 00-1.5 1.5v26a1.5 1.5 0 001.5 1.5H3v-29z" fill="#AFAFAF"/><rect x="17" y="14" width="391" height="828" rx="48" fill="#1E1E20"/><path fill="#1E1E20" d="M25 22h375v812H25z"/><rect x="17" y="14" width="391" height="828" rx="48" stroke="#1E1E20" stroke-width="16"/></svg>