<svg width="290" height="490" fill="none" xmlns="http://www.w3.org/2000/svg"><g filter="url(#filter0_i_105:284)" clip-path="url(#clip0_105:284)"><path d="M1.997 66.47c0-23.267 0-34.9 4.528-43.787A41.543 41.543 0 0124.68 4.528C33.567 0 45.2 0 68.466 0h152.672c23.267 0 34.9 0 43.786 4.528a41.538 41.538 0 0118.155 18.155c4.528 8.887 4.528 20.52 4.528 43.786v84.125h1.199a.8.8 0 01.799.799v67.908a.8.8 0 01-.799.799h-1.199v299.431c0 23.266 0 34.899-4.528 43.786a41.538 41.538 0 01-18.155 18.155C256.038 586 244.405 586 221.138 586H68.466c-23.266 0-34.9 0-43.786-4.528a41.543 41.543 0 01-18.155-18.155c-4.528-8.887-4.528-20.52-4.528-43.786V234.08H.8a.798.798 0 01-.799-.798V190.14c0-.441.358-.798.799-.798h1.198v-9.987H.8a.8.8 0 01-.799-.799v-43.141a.8.8 0 01.799-.799h1.198v-18.774H.8a.8.8 0 01-.799-.799V93.472a.8.8 0 01.799-.799h1.198V66.469z" fill="#353432"/><g style="mix-blend-mode:multiply"><mask id="a" style="mask-type:alpha" maskUnits="userSpaceOnUse" x="1" y="0" width="287" height="586"><path d="M1.997 66.47c0-23.267 0-34.9 4.528-43.787A41.543 41.543 0 0124.68 4.528C33.567 0 45.2 0 68.466 0h152.672c23.266 0 34.9 0 43.786 4.528a41.543 41.543 0 0118.155 18.155c4.528 8.887 4.528 20.52 4.528 43.786v453.062c0 23.266 0 34.899-4.528 43.786a41.543 41.543 0 01-18.155 18.155C256.038 586 244.404 586 221.138 586H68.466c-23.266 0-34.9 0-43.786-4.528a41.543 41.543 0 01-18.155-18.155c-4.528-8.887-4.528-20.52-4.528-43.786V66.469z" fill="#000"/></mask><g mask="url(#a)"><g style="mix-blend-mode:multiply"><g style="mix-blend-mode:multiply" filter="url(#filter1_i_105:284)"><path d="M1.997 66.47c0-23.267 0-34.9 4.528-43.787A41.543 41.543 0 0124.68 4.528C33.567 0 45.2 0 68.466 0h152.672c23.266 0 34.9 0 43.786 4.528a41.543 41.543 0 0118.155 18.155c4.528 8.887 4.528 20.52 4.528 43.786v453.062c0 23.266 0 34.899-4.528 43.786a41.543 41.543 0 01-18.155 18.155C256.038 586 244.404 586 221.138 586H68.466c-23.266 0-34.9 0-43.786-4.528a41.543 41.543 0 01-18.155-18.155c-4.528-8.887-4.528-20.52-4.528-43.786V66.469z" fill="#EBEBEB"/></g><path style="mix-blend-mode:multiply" d="M7.19 49.932H.4v5.592h6.79v-5.592z" fill="url(#paint0_linear_105:284)"/><path style="mix-blend-mode:multiply" d="M289.205 49.932h-6.791v5.592h6.791v-5.592z" fill="url(#paint1_linear_105:284)"/><path style="mix-blend-mode:multiply" d="M226.891 3.995v-6.791h-5.592v6.79h5.592z" fill="url(#paint2_linear_105:284)"/></g><g style="mix-blend-mode:multiply"><path d="M67.189 3.446h155.228c10.854 0 18.98 0 25.428.527 6.446.526 11.194 1.578 15.297 3.669a38.497 38.497 0 0116.824 16.823c2.091 4.104 3.142 8.852 3.669 15.297.527 6.449.527 14.575.527 25.429v455.618c0 10.854 0 18.98-.527 25.429-.527 6.445-1.578 11.194-3.669 15.297a38.494 38.494 0 01-16.824 16.823c-4.103 2.091-8.851 3.143-15.297 3.669-6.448.527-14.574.527-25.428.527H67.189c-10.855 0-18.98 0-25.429-.527-6.446-.526-11.194-1.578-15.297-3.669A38.494 38.494 0 019.64 561.535c-2.09-4.103-3.142-8.852-3.669-15.297-.526-6.449-.527-14.575-.527-25.429V65.191c0-10.854 0-18.98.527-25.429.527-6.445 1.579-11.193 3.67-15.297A38.497 38.497 0 0126.462 7.642c4.103-2.091 8.851-3.143 15.297-3.67 6.449-.526 14.574-.526 25.429-.526z" fill="#000"/><path d="M67.189 3.446h155.228c10.854 0 18.98 0 25.428.527 6.446.526 11.194 1.578 15.297 3.669a38.497 38.497 0 0116.824 16.823c2.091 4.104 3.142 8.852 3.669 15.297.527 6.449.527 14.575.527 25.429v455.618c0 10.854 0 18.98-.527 25.429-.527 6.445-1.578 11.194-3.669 15.297a38.494 38.494 0 01-16.824 16.823c-4.103 2.091-8.851 3.143-15.297 3.669-6.448.527-14.574.527-25.428.527H67.189c-10.855 0-18.98 0-25.429-.527-6.446-.526-11.194-1.578-15.297-3.669A38.494 38.494 0 019.64 561.535c-2.09-4.103-3.142-8.852-3.669-15.297-.526-6.449-.527-14.575-.527-25.429V65.191c0-10.854 0-18.98.527-25.429.527-6.445 1.579-11.193 3.67-15.297A38.497 38.497 0 0126.462 7.642c4.103-2.091 8.851-3.143 15.297-3.67 6.449-.526 14.574-.526 25.429-.526z" stroke="url(#paint3_linear_105:284)" stroke-width=".5" style="mix-blend-mode:multiply"/></g></g></g><g style="mix-blend-mode:screen"><mask id="b" style="mask-type:alpha" maskUnits="userSpaceOnUse" x="1" y="0" width="287" height="586"><path d="M1.997 66.47c0-23.267 0-34.9 4.528-43.787A41.543 41.543 0 0124.68 4.528C33.567 0 45.2 0 68.466 0h152.672c23.266 0 34.9 0 43.786 4.528a41.543 41.543 0 0118.155 18.155c4.528 8.887 4.528 20.52 4.528 43.786v453.062c0 23.266 0 34.899-4.528 43.786a41.543 41.543 0 01-18.155 18.155C256.038 586 244.404 586 221.138 586H68.466c-23.266 0-34.9 0-43.786-4.528a41.543 41.543 0 01-18.155-18.155c-4.528-8.887-4.528-20.52-4.528-43.786V66.469z" fill="#000"/></mask><g mask="url(#b)"><g style="mix-blend-mode:screen"><g style="mix-blend-mode:screen" filter="url(#filter2_ii_105:284)"><path d="M1.997 66.47c0-23.267 0-34.9 4.528-43.787A41.543 41.543 0 0124.68 4.528C33.567 0 45.2 0 68.466 0h152.672c23.266 0 34.9 0 43.786 4.528a41.543 41.543 0 0118.155 18.155c4.528 8.887 4.528 20.52 4.528 43.786v453.062c0 23.266 0 34.899-4.528 43.786a41.543 41.543 0 01-18.155 18.155C256.038 586 244.404 586 221.138 586H68.466c-23.266 0-34.9 0-43.786-4.528a41.543 41.543 0 01-18.155-18.155c-4.528-8.887-4.528-20.52-4.528-43.786V66.469z" fill="#050505"/></g><path style="mix-blend-mode:screen" d="M68.466 1h152.672c11.65 0 20.327 0 27.204.563 6.866.56 11.849 1.676 16.128 3.856a40.541 40.541 0 0117.718 17.718c2.18 4.279 3.296 9.263 3.856 16.128.562 6.877.563 15.554.563 27.204v453.062c0 11.649-.001 20.327-.563 27.204-.56 6.865-1.676 11.849-3.856 16.128a40.54 40.54 0 01-17.718 17.718c-4.279 2.18-9.262 3.295-16.128 3.856-6.877.562-15.554.563-27.204.563H68.466c-11.65 0-20.326-.001-27.204-.563-6.865-.561-11.85-1.676-16.128-3.856a40.541 40.541 0 01-17.718-17.718c-2.18-4.279-3.295-9.263-3.856-16.128-.562-6.877-.563-15.555-.563-27.204V66.469c0-11.65 0-20.327.563-27.204.56-6.865 1.676-11.85 3.856-16.128A40.543 40.543 0 0125.134 5.419c4.279-2.18 9.263-3.295 16.128-3.856C48.14 1 56.817 1 68.466 1z" stroke="url(#paint4_linear_105:284)" stroke-width="2"/><path style="mix-blend-mode:screen" d="M7.19 49.932H.4v5.592h6.79v-5.592z" fill="url(#paint5_linear_105:284)"/><path style="mix-blend-mode:screen" d="M289.205 49.932h-6.791v5.592h6.791v-5.592z" fill="url(#paint6_linear_105:284)"/><path style="mix-blend-mode:screen" d="M226.891 3.995v-6.791h-5.592v6.79h5.592z" fill="url(#paint7_linear_105:284)"/></g><g style="mix-blend-mode:screen"><path d="M67.189 3.446h155.228c10.854 0 18.98 0 25.428.527 6.446.526 11.194 1.578 15.297 3.669a38.497 38.497 0 0116.824 16.823c2.091 4.104 3.142 8.852 3.669 15.297.527 6.449.527 14.575.527 25.429v455.618c0 10.854 0 18.98-.527 25.429-.527 6.445-1.578 11.194-3.669 15.297a38.494 38.494 0 01-16.824 16.823c-4.103 2.091-8.851 3.143-15.297 3.669-6.448.527-14.574.527-25.428.527H67.189c-10.855 0-18.98 0-25.429-.527-6.446-.526-11.194-1.578-15.297-3.669A38.494 38.494 0 019.64 561.535c-2.09-4.103-3.142-8.852-3.669-15.297-.526-6.449-.527-14.575-.527-25.429V65.191c0-10.854 0-18.98.527-25.429.527-6.445 1.579-11.193 3.67-15.297A38.497 38.497 0 0126.462 7.642c4.103-2.091 8.851-3.143 15.297-3.67 6.449-.526 14.574-.526 25.429-.526z" fill="#000"/><path d="M67.189 3.446h155.228c10.854 0 18.98 0 25.428.527 6.446.526 11.194 1.578 15.297 3.669a38.497 38.497 0 0116.824 16.823c2.091 4.104 3.142 8.852 3.669 15.297.527 6.449.527 14.575.527 25.429v455.618c0 10.854 0 18.98-.527 25.429-.527 6.445-1.578 11.194-3.669 15.297a38.494 38.494 0 01-16.824 16.823c-4.103 2.091-8.851 3.143-15.297 3.669-6.448.527-14.574.527-25.428.527H67.189c-10.855 0-18.98 0-25.429-.527-6.446-.526-11.194-1.578-15.297-3.669A38.494 38.494 0 019.64 561.535c-2.09-4.103-3.142-8.852-3.669-15.297-.526-6.449-.527-14.575-.527-25.429V65.191c0-10.854 0-18.98.527-25.429.527-6.445 1.579-11.193 3.67-15.297A38.497 38.497 0 0126.462 7.642c4.103-2.091 8.851-3.143 15.297-3.67 6.449-.526 14.574-.526 25.429-.526z" stroke="url(#paint8_linear_105:284)" stroke-width=".5" style="mix-blend-mode:screen"/></g><path d="M18.94 29.212c-2.962 5.81-2.962 13.416-2.962 28.63v470.317c0 15.213 0 22.819 2.961 28.629a27.163 27.163 0 0011.87 11.871c5.811 2.961 13.418 2.961 28.63 2.961h170.727c15.213 0 22.819 0 28.63-2.961a27.16 27.16 0 0011.87-11.871c2.961-5.81 2.961-13.416 2.961-28.629V57.841c0-15.213 0-22.819-2.961-28.63a27.16 27.16 0 00-11.87-11.87c-5.811-2.96-13.417-2.96-28.63-2.96h-13.351c-.661 0-.991 0-1.256.096a1.596 1.596 0 00-.955.955c-.097.264-.097.595-.097 1.256 0 5.29 0 7.935-.77 10.053a12.786 12.786 0 01-7.64 7.64c-2.118.771-4.763.771-10.053.771H93.561c-5.29 0-7.935 0-10.053-.77a12.783 12.783 0 01-7.64-7.64c-.77-2.119-.77-4.764-.77-10.054 0-.66 0-.991-.097-1.256a1.598 1.598 0 00-.955-.955c-.264-.097-.595-.097-1.256-.097H59.44c-15.213 0-22.82 0-28.63 2.961a27.163 27.163 0 00-11.87 11.87z" fill="#000"/></g></g><g filter="url(#filter3_i_105:284)"><path d="M129.424 21.97a2.796 2.796 0 012.796-2.796h25.565a2.796 2.796 0 010 5.592H132.22a2.796 2.796 0 01-2.796-2.796z" fill="#161616"/></g><g filter="url(#filter4_f_105:284)"><path d="M132.22 20.174h25.565a1.796 1.796 0 010 3.592H132.22a1.796 1.796 0 010-3.592z" stroke="#000" stroke-opacity=".32" stroke-width="2"/></g><path d="M132.22 19.674h25.565a2.296 2.296 0 010 4.592H132.22a2.296 2.296 0 010-4.592z" stroke="url(#paint9_linear_105:284)"/><path d="M166.973 21.97a5.592 5.592 0 1111.184 0 5.592 5.592 0 11-11.184 0z" fill="url(#paint10_radial_105:284)"/><path d="M166.973 21.97a5.592 5.592 0 1111.184 0 5.592 5.592 0 11-11.184 0z" fill="url(#paint11_radial_105:284)"/><path d="M175.361 21.97a2.796 2.796 0 10-5.592 0 2.796 2.796 0 005.592 0z" fill="url(#paint12_linear_105:284)"/><path d="M175.361 21.97a2.796 2.796 0 10-5.592 0 2.796 2.796 0 005.592 0z" fill="url(#paint13_radial_105:284)"/><path d="M175.361 21.97a2.796 2.796 0 10-5.592 0 2.796 2.796 0 005.592 0z" fill="url(#paint14_radial_105:284)"/><path d="M175.361 21.97a2.796 2.796 0 10-5.592 0 2.796 2.796 0 005.592 0z" fill="url(#paint15_radial_105:284)"/><path d="M175.361 21.97a2.796 2.796 0 10-5.592 0 2.796 2.796 0 005.592 0z" fill="url(#paint16_radial_105:284)"/></g><defs><linearGradient id="paint0_linear_105:284" x1=".399" y1="52.928" x2="7.19" y2="52.928" gradientUnits="userSpaceOnUse"><stop offset=".109" stop-color="#D1D1D1"/><stop offset=".318" stop-color="#E3E3E3"/><stop offset=".552" stop-color="#D2D2D2"/><stop offset=".807" stop-color="#E6E6E6"/></linearGradient><linearGradient id="paint1_linear_105:284" x1="282.414" y1="52.928" x2="289.205" y2="52.928" gradientUnits="userSpaceOnUse"><stop offset=".099" stop-color="#E6E6E6"/><stop offset=".369" stop-color="#D2D2D2"/><stop offset=".625" stop-color="#E3E3E3"/><stop offset=".799" stop-color="#D1D1D1"/></linearGradient><linearGradient id="paint2_linear_105:284" x1="223.895" y1="-2.796" x2="223.895" y2="3.994" gradientUnits="userSpaceOnUse"><stop offset=".238" stop-color="#D1D1D1"/><stop offset=".417" stop-color="#E3E3E3"/><stop offset=".7" stop-color="#D2D2D2"/><stop offset=".926" stop-color="#E6E6E6"/></linearGradient><linearGradient id="paint3_linear_105:284" x1="23.04" y1="10.604" x2="262.64" y2="568.195" gradientUnits="userSpaceOnUse"><stop stop-color="#fff" stop-opacity=".16"/><stop offset="1" stop-color="#fff" stop-opacity=".05"/></linearGradient><linearGradient id="paint4_linear_105:284" x1="144.802" y1="0" x2="144.802" y2="586" gradientUnits="userSpaceOnUse"><stop stop-color="#fff" stop-opacity=".64"/><stop offset="1" stop-color="#fff" stop-opacity=".32"/></linearGradient><linearGradient id="paint5_linear_105:284" x1=".399" y1="52.928" x2="7.19" y2="52.928" gradientUnits="userSpaceOnUse"><stop offset=".124" stop-color="#8F8F8F"/><stop offset=".366" stop-color="#525252"/><stop offset=".828" stop-color="#141414"/></linearGradient><linearGradient id="paint6_linear_105:284" x1="282.414" y1="52.928" x2="289.205" y2="52.928" gradientUnits="userSpaceOnUse"><stop offset=".088" stop-color="#141414"/><stop offset=".536" stop-color="#525252"/><stop offset=".757" stop-color="#8F8F8F"/></linearGradient><linearGradient id="paint7_linear_105:284" x1="223.895" y1="-2.796" x2="223.895" y2="3.994" gradientUnits="userSpaceOnUse"><stop offset=".42" stop-color="#8F8F8F"/><stop offset=".61" stop-color="#525252"/><stop offset=".976" stop-color="#141414"/></linearGradient><linearGradient id="paint8_linear_105:284" x1="23.04" y1="10.604" x2="262.64" y2="568.195" gradientUnits="userSpaceOnUse"><stop stop-color="#fff" stop-opacity=".16"/><stop offset="1" stop-color="#fff" stop-opacity=".05"/></linearGradient><linearGradient id="paint9_linear_105:284" x1="145.003" y1="19.174" x2="145.003" y2="24.766" gradientUnits="userSpaceOnUse"><stop/><stop offset=".483" stop-color="#484848"/><stop offset="1"/></linearGradient><linearGradient id="paint12_linear_105:284" x1="172.565" y1="19.174" x2="172.565" y2="24.766" gradientUnits="userSpaceOnUse"><stop stop-color="#0B528D"/><stop offset=".276" stop-color="#3625AF"/><stop offset=".51" stop-color="#070D17"/><stop offset=".734" stop-color="#16618F"/><stop offset="1" stop-color="#021762"/></linearGradient><radialGradient id="paint10_radial_105:284" cx="0" cy="0" r="1" gradientUnits="userSpaceOnUse" gradientTransform="rotate(-127.694 92.814 -30.33) scale(5.55299)"><stop stop-color="#242424"/><stop offset="1" stop-color="#161616"/></radialGradient><radialGradient id="paint11_radial_105:284" cx="0" cy="0" r="1" gradientUnits="userSpaceOnUse" gradientTransform="rotate(90 75.297 97.268) scale(5.59237)"><stop offset=".464" stop-opacity=".25"/><stop offset=".646" stop-opacity="0"/></radialGradient><radialGradient id="paint13_radial_105:284" cx="0" cy="0" r="1" gradientUnits="userSpaceOnUse" gradientTransform="rotate(58.392 66.062 163.128) scale(3.04871)"><stop stop-color="#070D17"/><stop offset="1" stop-color="#070D17" stop-opacity="0"/></radialGradient><radialGradient id="paint14_radial_105:284" cx="0" cy="0" r="1" gradientUnits="userSpaceOnUse" gradientTransform="rotate(106.699 78.16 75.53) scale(2.08521)"><stop offset=".147" stop-color="#070D17"/><stop offset="1" stop-color="#070D17" stop-opacity="0"/></radialGradient><radialGradient id="paint15_radial_105:284" cx="0" cy="0" r="1" gradientUnits="userSpaceOnUse" gradientTransform="rotate(128.66 81.546 52.347) scale(1.27888)"><stop stop-color="#6356D7"/><stop offset="1" stop-color="#15368A" stop-opacity="0"/></radialGradient><radialGradient id="paint16_radial_105:284" cx="0" cy="0" r="1" gradientUnits="userSpaceOnUse" gradientTransform="rotate(90 75.297 97.268) scale(2.79618)"><stop offset=".828" stop-opacity="0"/><stop offset="1" stop-opacity=".85"/></radialGradient><filter id="filter0_i_105:284" x="0" y="0" width="309.605" height="596" filterUnits="userSpaceOnUse" color-interpolation-filters="sRGB"><feFlood flood-opacity="0" result="BackgroundImageFix"/><feBlend in="SourceGraphic" in2="BackgroundImageFix" result="shape"/><feColorMatrix in="SourceAlpha" values="0 0 0 0 0 0 0 0 0 0 0 0 0 0 0 0 0 0 127 0" result="hardAlpha"/><feOffset dx="20" dy="10"/><feGaussianBlur stdDeviation="10"/><feComposite in2="hardAlpha" operator="arithmetic" k2="-1" k3="1"/><feColorMatrix values="0 0 0 0 0 0 0 0 0 0 0 0 0 0 0 0 0 0 0.15 0"/><feBlend in2="shape" result="effect1_innerShadow_105:284"/></filter><filter id="filter1_i_105:284" x="1.997" y="0" width="285.61" height="586" filterUnits="userSpaceOnUse" color-interpolation-filters="sRGB"><feFlood flood-opacity="0" result="BackgroundImageFix"/><feBlend in="SourceGraphic" in2="BackgroundImageFix" result="shape"/><feColorMatrix in="SourceAlpha" values="0 0 0 0 0 0 0 0 0 0 0 0 0 0 0 0 0 0 127 0" result="hardAlpha"/><feOffset/><feGaussianBlur stdDeviation="8"/><feComposite in2="hardAlpha" operator="arithmetic" k2="-1" k3="1"/><feColorMatrix values="0 0 0 0 0 0 0 0 0 0 0 0 0 0 0 0 0 0 0.32 0"/><feBlend in2="shape" result="effect1_innerShadow_105:284"/></filter><filter id="filter2_ii_105:284" x="1.997" y="0" width="285.61" height="586" filterUnits="userSpaceOnUse" color-interpolation-filters="sRGB"><feFlood flood-opacity="0" result="BackgroundImageFix"/><feBlend in="SourceGraphic" in2="BackgroundImageFix" result="shape"/><feColorMatrix in="SourceAlpha" values="0 0 0 0 0 0 0 0 0 0 0 0 0 0 0 0 0 0 127 0" result="hardAlpha"/><feOffset/><feGaussianBlur stdDeviation="5"/><feComposite in2="hardAlpha" operator="arithmetic" k2="-1" k3="1"/><feColorMatrix values="0 0 0 0 1 0 0 0 0 1 0 0 0 0 1 0 0 0 0.88 0"/><feBlend in2="shape" result="effect1_innerShadow_105:284"/><feColorMatrix in="SourceAlpha" values="0 0 0 0 0 0 0 0 0 0 0 0 0 0 0 0 0 0 127 0" result="hardAlpha"/><feOffset/><feGaussianBlur stdDeviation="2.5"/><feComposite in2="hardAlpha" operator="arithmetic" k2="-1" k3="1"/><feColorMatrix values="0 0 0 0 0 0 0 0 0 0 0 0 0 0 0 0 0 0 1 0"/><feBlend in2="effect1_innerShadow_105:284" result="effect2_innerShadow_105:284"/></filter><filter id="filter3_i_105:284" x="129.424" y="19.174" width="31.157" height="5.592" filterUnits="userSpaceOnUse" color-interpolation-filters="sRGB"><feFlood flood-opacity="0" result="BackgroundImageFix"/><feBlend in="SourceGraphic" in2="BackgroundImageFix" result="shape"/><feColorMatrix in="SourceAlpha" values="0 0 0 0 0 0 0 0 0 0 0 0 0 0 0 0 0 0 127 0" result="hardAlpha"/><feOffset/><feGaussianBlur stdDeviation="4"/><feComposite in2="hardAlpha" operator="arithmetic" k2="-1" k3="1"/><feColorMatrix values="0 0 0 0 0 0 0 0 0 0 0 0 0 0 0 0 0 0 0.48 0"/><feBlend in2="shape" result="effect1_innerShadow_105:284"/></filter><filter id="filter4_f_105:284" x="128.424" y="18.174" width="33.157" height="7.592" filterUnits="userSpaceOnUse" color-interpolation-filters="sRGB"><feFlood flood-opacity="0" result="BackgroundImageFix"/><feBlend in="SourceGraphic" in2="BackgroundImageFix" result="shape"/><feGaussianBlur stdDeviation=".5" result="effect1_foregroundBlur_105:284"/></filter><clipPath id="clip0_105:284"><path fill="#fff" d="M0 0h290v490H0z"/></clipPath></defs></svg>