<svg width="210" height="29" fill="none" xmlns="http://www.w3.org/2000/svg"><mask id="a" fill="#fff"><path fill-rule="evenodd" clip-rule="evenodd" d="M0 0c3.102 0 6.205 3.093 6.224 6.195v7.41c0 7.955 6.448 14.403 14.403 14.403h168.809c7.954 0 14.402-6.448 14.402-14.402V0H0zm203.838 5.446c0-3.112 2.334-5.446 5.446-5.446h-5.446v5.446z"/></mask><path d="M6.224 6.195h.5v-.003l-.5.003zM203.838 0h.5v-.5h-.5V0zm0 0v-.5h-.5V0h.5zM6.724 6.192c-.01-1.713-.867-3.381-2.103-4.612C3.385.349 1.713-.5 0-.5v1c1.389 0 2.82.697 3.915 1.788 1.096 1.091 1.8 2.52 1.809 3.91l1-.006zm0 7.414V6.195h-1v7.41h1zm13.903 13.902c-7.679 0-13.903-6.224-13.903-13.902h-1c0 8.23 6.672 14.902 14.903 14.902v-1zm168.809 0H20.626v1h168.81v-1zm13.902-13.902c0 7.678-6.224 13.902-13.902 13.902v1c8.23 0 14.902-6.672 14.902-14.902h-1zm0-13.606v13.606h1V0h-1zM6.224.5h197.614v-1H6.224v1zm0 0v-1 1zM0 .5h6.224v-1H0v1zm209.284-1c-3.388 0-5.946 2.558-5.946 5.946h1c0-2.836 2.11-4.946 4.946-4.946v-1zm-5.446 1h5.446v-1h-5.446v1zm.5 4.946V0h-1v5.446h1z" fill="#1E1E20" style="mix-blend-mode:overlay" mask="url(#a)"/><path fill-rule="evenodd" clip-rule="evenodd" d="M0 0c3.106 0 6.213 3.1 6.224 6.207v7.399c0 7.954 6.448 14.402 14.403 14.402h168.809c7.954 0 14.402-6.448 14.402-14.402V0H0zm203.838 5.446c0-3.112 2.334-5.446 5.446-5.446h-5.446v5.446z" fill="#1E1E20"/><circle r="6" transform="matrix(-1 0 0 1 137.531 10)" fill="#333"/><rect x="66.531" y="6" width="50" height="8" rx="4" fill="#333"/></svg>