<svg width="33" height="33" fill="none" xmlns="http://www.w3.org/2000/svg"><path d="M16.5 3.167C9.14 3.167 3.167 9.14 3.167 16.5S9.14 29.833 16.5 29.833 29.834 23.86 29.834 16.5 23.86 3.167 16.5 3.167zm1.88 21.453v2.547h-3.56v-2.574c-2.28-.48-4.213-1.946-4.36-4.533h2.614c.133 1.4 1.093 2.493 3.533 2.493 2.613 0 3.2-1.306 3.2-2.12 0-1.106-.587-2.146-3.56-2.853-3.307-.8-5.573-2.16-5.573-4.893 0-2.294 1.853-3.787 4.146-4.28V5.833h3.56v2.6c2.48.6 3.72 2.48 3.8 4.52h-2.613c-.067-1.48-.853-2.493-2.96-2.493-2 0-3.2.907-3.2 2.187 0 1.12.867 1.853 3.56 2.546 2.693.694 5.573 1.854 5.573 5.214-.013 2.44-1.84 3.773-4.16 4.213z" fill="#fff"/></svg>