<svg width="290" height="490" viewBox="0 0 290 490" fill="none" xmlns="http://www.w3.org/2000/svg">
<g clip-path="url(#clip0_105:284)">
<g filter="url(#filter0_i_105:284)">
<path d="M1.99727 66.4693C1.99727 43.2028 1.99727 31.5696 6.52522 22.683C10.5081 14.8662 16.8634 8.5108 24.6803 4.5279C33.5669 -4.76837e-07 45.2001 0 68.4665 0H221.138C244.405 0 256.038 -4.76837e-07 264.924 4.5279C272.741 8.5108 279.097 14.8662 283.079 22.683C287.607 31.5696 287.607 43.2028 287.607 66.4693V150.594H288.806C289.247 150.594 289.605 150.952 289.605 151.393V219.301C289.605 219.742 289.247 220.1 288.806 220.1H287.607V519.531C287.607 542.797 287.607 554.43 283.079 563.317C279.097 571.134 272.741 577.489 264.924 581.472C256.038 586 244.405 586 221.138 586H68.4665C45.2001 586 33.5669 586 24.6803 581.472C16.8634 577.489 10.5081 571.134 6.52522 563.317C1.99727 554.43 1.99727 542.797 1.99727 519.531V234.08H0.798909C0.357684 234.08 0 233.723 0 233.282V190.14C0 189.699 0.357684 189.342 0.798909 189.342H1.99727V179.355H0.798909C0.357684 179.355 0 178.997 0 178.556V135.415C0 134.974 0.357684 134.616 0.798909 134.616H1.99727V115.842H0.798909C0.357684 115.842 0 115.484 0 115.043V93.472C0 93.031 0.357684 92.673 0.798909 92.673H1.99727V66.4693Z" fill="#353432"/>
<g style="mix-blend-mode:multiply">
<mask id="mask0_105:284" style="mask-type:alpha" maskUnits="userSpaceOnUse" x="1" y="0" width="287" height="586">
<g style="mix-blend-mode:multiply">
<g style="mix-blend-mode:multiply">
<path d="M1.99707 66.4693C1.99707 43.2028 1.99707 31.5696 6.52502 22.683C10.5079 14.8662 16.8632 8.5108 24.6801 4.5279C33.5667 -4.76837e-07 45.1999 0 68.4663 0H221.138C244.404 0 256.038 -4.76837e-07 264.924 4.5279C272.741 8.5108 279.096 14.8662 283.079 22.683C287.607 31.5696 287.607 43.2028 287.607 66.4693V519.531C287.607 542.797 287.607 554.43 283.079 563.317C279.096 571.134 272.741 577.489 264.924 581.472C256.038 586 244.404 586 221.138 586H68.4663C45.1999 586 33.5667 586 24.6801 581.472C16.8632 577.489 10.5079 571.134 6.52502 563.317C1.99707 554.43 1.99707 542.797 1.99707 519.531V66.4693Z" fill="black"/>
</g>
</g>
</mask>
<g mask="url(#mask0_105:284)">
<g style="mix-blend-mode:multiply">
<g style="mix-blend-mode:multiply" filter="url(#filter1_i_105:284)">
<g style="mix-blend-mode:multiply">
<path d="M1.99707 66.4693C1.99707 43.2028 1.99707 31.5696 6.52502 22.683C10.5079 14.8662 16.8632 8.5108 24.6801 4.5279C33.5667 -4.76837e-07 45.1999 0 68.4663 0H221.138C244.404 0 256.038 -4.76837e-07 264.924 4.5279C272.741 8.5108 279.096 14.8662 283.079 22.683C287.607 31.5696 287.607 43.2028 287.607 66.4693V519.531C287.607 542.797 287.607 554.43 283.079 563.317C279.096 571.134 272.741 577.489 264.924 581.472C256.038 586 244.404 586 221.138 586H68.4663C45.1999 586 33.5667 586 24.6801 581.472C16.8632 577.489 10.5079 571.134 6.52502 563.317C1.99707 554.43 1.99707 542.797 1.99707 519.531V66.4693Z" fill="#EBEBEB"/>
</g>
</g>
<path style="mix-blend-mode:multiply" d="M7.19014 49.9319H0.399414V55.5243H7.19014V49.9319Z" fill="url(#paint0_linear_105:284)"/>
<path style="mix-blend-mode:multiply" d="M289.205 49.9319H282.414V55.5243H289.205V49.9319Z" fill="url(#paint1_linear_105:284)"/>
<path style="mix-blend-mode:multiply" d="M226.891 3.99458V-2.79614L221.299 -2.79614V3.99458H226.891Z" fill="url(#paint2_linear_105:284)"/>
</g>
<g style="mix-blend-mode:multiply">
<path d="M67.1887 3.44568H222.417C233.271 3.44568 241.397 3.44588 247.845 3.97268C254.291 4.49938 259.039 5.55098 263.142 7.64158C270.386 11.3325 276.275 17.2218 279.966 24.4655C282.057 28.5686 283.108 33.3167 283.635 39.7624C284.162 46.211 284.162 54.3367 284.162 65.191V520.809C284.162 531.663 284.162 539.789 283.635 546.238C283.108 552.683 282.057 557.432 279.966 561.535C276.275 568.778 270.386 574.668 263.142 578.358C259.039 580.449 254.291 581.501 247.845 582.027C241.397 582.554 233.271 582.554 222.417 582.554H67.1887C56.3344 582.554 48.2087 582.554 41.7601 582.027C35.3144 581.501 30.5663 580.449 26.4631 578.358C19.2194 574.668 13.3301 568.778 9.63929 561.535C7.54865 557.432 6.49706 552.683 5.97043 546.238C5.44355 539.789 5.44336 531.663 5.44336 520.809V65.191C5.44336 54.3367 5.44355 46.211 5.97043 39.7624C6.49706 33.3167 7.54865 28.5686 9.63929 24.4655C13.3301 17.2218 19.2194 11.3325 26.4631 7.64158C30.5663 5.55098 35.3144 4.49938 41.7601 3.97268C48.2087 3.44588 56.3344 3.44568 67.1887 3.44568Z" fill="black"/>
<path d="M67.1887 3.44568H222.417C233.271 3.44568 241.397 3.44588 247.845 3.97268C254.291 4.49938 259.039 5.55098 263.142 7.64158C270.386 11.3325 276.275 17.2218 279.966 24.4655C282.057 28.5686 283.108 33.3167 283.635 39.7624C284.162 46.211 284.162 54.3367 284.162 65.191V520.809C284.162 531.663 284.162 539.789 283.635 546.238C283.108 552.683 282.057 557.432 279.966 561.535C276.275 568.778 270.386 574.668 263.142 578.358C259.039 580.449 254.291 581.501 247.845 582.027C241.397 582.554 233.271 582.554 222.417 582.554H67.1887C56.3344 582.554 48.2087 582.554 41.7601 582.027C35.3144 581.501 30.5663 580.449 26.4631 578.358C19.2194 574.668 13.3301 568.778 9.63929 561.535C7.54865 557.432 6.49706 552.683 5.97043 546.238C5.44355 539.789 5.44336 531.663 5.44336 520.809V65.191C5.44336 54.3367 5.44355 46.211 5.97043 39.7624C6.49706 33.3167 7.54865 28.5686 9.63929 24.4655C13.3301 17.2218 19.2194 11.3325 26.4631 7.64158C30.5663 5.55098 35.3144 4.49938 41.7601 3.97268C48.2087 3.44588 56.3344 3.44568 67.1887 3.44568Z" stroke="url(#paint3_linear_105:284)" stroke-width="0.5" style="mix-blend-mode:multiply"/>
</g>
</g>
</g>
<g style="mix-blend-mode:screen">
<mask id="mask1_105:284" style="mask-type:alpha" maskUnits="userSpaceOnUse" x="1" y="0" width="287" height="586">
<g style="mix-blend-mode:screen">
<g style="mix-blend-mode:screen">
<path d="M1.99707 66.4693C1.99707 43.2028 1.99707 31.5696 6.52502 22.683C10.5079 14.8662 16.8632 8.5108 24.6801 4.5279C33.5667 -4.76837e-07 45.1999 0 68.4663 0H221.138C244.404 0 256.038 -4.76837e-07 264.924 4.5279C272.741 8.5108 279.096 14.8662 283.079 22.683C287.607 31.5696 287.607 43.2028 287.607 66.4693V519.531C287.607 542.797 287.607 554.43 283.079 563.317C279.096 571.134 272.741 577.489 264.924 581.472C256.038 586 244.404 586 221.138 586H68.4663C45.1999 586 33.5667 586 24.6801 581.472C16.8632 577.489 10.5079 571.134 6.52502 563.317C1.99707 554.43 1.99707 542.797 1.99707 519.531V66.4693Z" fill="black"/>
</g>
</g>
</mask>
<g mask="url(#mask1_105:284)">
<g style="mix-blend-mode:screen">
<g style="mix-blend-mode:screen" filter="url(#filter2_ii_105:284)">
<g style="mix-blend-mode:screen">
<path d="M1.99707 66.4693C1.99707 43.2028 1.99707 31.5696 6.52502 22.683C10.5079 14.8662 16.8632 8.5108 24.6801 4.5279C33.5667 -4.76837e-07 45.1999 0 68.4663 0H221.138C244.404 0 256.038 -4.76837e-07 264.924 4.5279C272.741 8.5108 279.096 14.8662 283.079 22.683C287.607 31.5696 287.607 43.2028 287.607 66.4693V519.531C287.607 542.797 287.607 554.43 283.079 563.317C279.096 571.134 272.741 577.489 264.924 581.472C256.038 586 244.404 586 221.138 586H68.4663C45.1999 586 33.5667 586 24.6801 581.472C16.8632 577.489 10.5079 571.134 6.52502 563.317C1.99707 554.43 1.99707 542.797 1.99707 519.531V66.4693Z" fill="#050505"/>
</g>
</g>
<path style="mix-blend-mode:screen" d="M68.4663 1H221.138C232.788 1 241.465 1.0008 248.342 1.5627C255.208 2.1236 260.191 3.2388 264.47 5.419C272.099 9.306 278.301 15.5083 282.188 23.137C284.368 27.4158 285.484 32.3996 286.044 39.2651C286.606 46.1424 286.607 54.8195 286.607 66.4693V519.531C286.607 531.18 286.606 539.858 286.044 546.735C285.484 553.6 284.368 558.584 282.188 562.863C278.301 570.492 272.099 576.694 264.47 580.581C260.191 582.761 255.208 583.876 248.342 584.437C241.465 584.999 232.788 585 221.138 585H68.4663C56.8166 585 48.1395 584.999 41.2622 584.437C34.3966 583.876 29.4129 582.761 25.1341 580.581C17.5054 576.694 11.303 570.492 7.41602 562.863C5.23585 558.584 4.12068 553.6 3.55974 546.735C2.99785 539.858 2.99707 531.18 2.99707 519.531V66.4693C2.99707 54.8195 2.99785 46.1424 3.55974 39.2651C4.12068 32.3996 5.23585 27.4158 7.41602 23.137C11.303 15.5083 17.5054 9.306 25.1341 5.419C29.4129 3.2388 34.3966 2.1236 41.2622 1.5627C48.1395 1.0008 56.8166 1 68.4663 1Z" stroke="url(#paint4_linear_105:284)" stroke-width="2"/>
<path style="mix-blend-mode:screen" d="M7.19014 49.9319H0.399414V55.5243H7.19014V49.9319Z" fill="url(#paint5_linear_105:284)"/>
<path style="mix-blend-mode:screen" d="M289.205 49.9319H282.414V55.5243H289.205V49.9319Z" fill="url(#paint6_linear_105:284)"/>
<path style="mix-blend-mode:screen" d="M226.891 3.99458V-2.79614L221.299 -2.79614V3.99458H226.891Z" fill="url(#paint7_linear_105:284)"/>
</g>
<g style="mix-blend-mode:screen">
<path d="M67.1887 3.44568H222.417C233.271 3.44568 241.397 3.44588 247.845 3.97268C254.291 4.49938 259.039 5.55098 263.142 7.64158C270.386 11.3325 276.275 17.2218 279.966 24.4655C282.057 28.5686 283.108 33.3167 283.635 39.7624C284.162 46.211 284.162 54.3367 284.162 65.191V520.809C284.162 531.663 284.162 539.789 283.635 546.238C283.108 552.683 282.057 557.432 279.966 561.535C276.275 568.778 270.386 574.668 263.142 578.358C259.039 580.449 254.291 581.501 247.845 582.027C241.397 582.554 233.271 582.554 222.417 582.554H67.1887C56.3344 582.554 48.2087 582.554 41.7601 582.027C35.3144 581.501 30.5663 580.449 26.4631 578.358C19.2194 574.668 13.3301 568.778 9.63929 561.535C7.54865 557.432 6.49706 552.683 5.97043 546.238C5.44355 539.789 5.44336 531.663 5.44336 520.809V65.191C5.44336 54.3367 5.44355 46.211 5.97043 39.7624C6.49706 33.3167 7.54865 28.5686 9.63929 24.4655C13.3301 17.2218 19.2194 11.3325 26.4631 7.64158C30.5663 5.55098 35.3144 4.49938 41.7601 3.97268C48.2087 3.44588 56.3344 3.44568 67.1887 3.44568Z" fill="black"/>
<path d="M67.1887 3.44568H222.417C233.271 3.44568 241.397 3.44588 247.845 3.97268C254.291 4.49938 259.039 5.55098 263.142 7.64158C270.386 11.3325 276.275 17.2218 279.966 24.4655C282.057 28.5686 283.108 33.3167 283.635 39.7624C284.162 46.211 284.162 54.3367 284.162 65.191V520.809C284.162 531.663 284.162 539.789 283.635 546.238C283.108 552.683 282.057 557.432 279.966 561.535C276.275 568.778 270.386 574.668 263.142 578.358C259.039 580.449 254.291 581.501 247.845 582.027C241.397 582.554 233.271 582.554 222.417 582.554H67.1887C56.3344 582.554 48.2087 582.554 41.7601 582.027C35.3144 581.501 30.5663 580.449 26.4631 578.358C19.2194 574.668 13.3301 568.778 9.63929 561.535C7.54865 557.432 6.49706 552.683 5.97043 546.238C5.44355 539.789 5.44336 531.663 5.44336 520.809V65.191C5.44336 54.3367 5.44355 46.211 5.97043 39.7624C6.49706 33.3167 7.54865 28.5686 9.63929 24.4655C13.3301 17.2218 19.2194 11.3325 26.4631 7.64158C30.5663 5.55098 35.3144 4.49938 41.7601 3.97268C48.2087 3.44588 56.3344 3.44568 67.1887 3.44568Z" stroke="url(#paint8_linear_105:284)" stroke-width="0.5" style="mix-blend-mode:screen"/>
</g>
<g style="mix-blend-mode:screen">
<path d="M18.9391 29.2116C15.9785 35.022 15.9785 42.6284 15.9785 57.8411V528.159C15.9785 543.372 15.9785 550.978 18.9391 556.788C21.5433 561.899 25.6987 566.055 30.8097 568.659C36.6202 571.62 44.2265 571.62 59.4392 571.62H230.166C245.379 571.62 252.985 571.62 258.796 568.659C263.907 566.055 268.062 561.899 270.666 556.788C273.627 550.978 273.627 543.372 273.627 528.159V57.841C273.627 42.6284 273.627 35.022 270.666 29.2116C268.062 24.1005 263.907 19.9452 258.796 17.341C252.985 14.3804 245.379 14.3804 230.166 14.3804H216.815C216.154 14.3804 215.824 14.3804 215.559 14.4767C215.115 14.6383 214.765 14.9879 214.604 15.4317C214.507 15.6965 214.507 16.0271 214.507 16.6883C214.507 21.9784 214.507 24.6234 213.737 26.7414C212.444 30.2919 209.647 33.0888 206.097 34.3811C203.979 35.152 201.334 35.152 196.044 35.152H93.5615C88.2715 35.152 85.6264 35.152 83.5085 34.3811C79.9579 33.0888 77.161 30.2919 75.8687 26.7414C75.0978 24.6234 75.0978 21.9784 75.0978 16.6883C75.0978 16.0271 75.0978 15.6965 75.0014 15.4317C74.8399 14.9879 74.4903 14.6383 74.0465 14.4767C73.7817 14.3804 73.4511 14.3804 72.7898 14.3804H59.4392C44.2265 14.3804 36.6202 14.3804 30.8097 17.341C25.6987 19.9452 21.5433 24.1005 18.9391 29.2116Z" fill="black"/>
</g>
</g>
</g>
<g filter="url(#filter3_i_105:284)">
<path d="M129.424 21.97C129.424 20.4257 130.676 19.1738 132.22 19.1738H157.785C159.329 19.1738 160.581 20.4257 160.581 21.97C160.581 23.5143 159.329 24.7662 157.785 24.7662H132.22C130.676 24.7662 129.424 23.5143 129.424 21.97Z" fill="#161616"/>
</g>
<g filter="url(#filter4_f_105:284)">
<path d="M132.22 20.1738H157.785C158.777 20.1738 159.581 20.978 159.581 21.97C159.581 22.962 158.777 23.7662 157.785 23.7662H132.22C131.228 23.7662 130.424 22.962 130.424 21.97C130.424 20.978 131.228 20.1738 132.22 20.1738Z" stroke="black" stroke-opacity="0.32" stroke-width="2"/>
</g>
<path d="M132.22 19.6738H157.785C159.053 19.6738 160.081 20.7019 160.081 21.97C160.081 23.2382 159.053 24.2662 157.785 24.2662H132.22C130.952 24.2662 129.924 23.2382 129.924 21.97C129.924 20.7019 130.952 19.6738 132.22 19.6738Z" stroke="url(#paint9_linear_105:284)"/>
<path d="M166.973 21.9701C166.973 18.8815 169.476 16.3777 172.565 16.3777C175.654 16.3777 178.157 18.8815 178.157 21.9701C178.157 25.0586 175.654 27.5624 172.565 27.5624C169.476 27.5624 166.973 25.0586 166.973 21.9701Z" fill="url(#paint10_radial_105:284)"/>
<path d="M166.973 21.9701C166.973 18.8815 169.476 16.3777 172.565 16.3777C175.654 16.3777 178.157 18.8815 178.157 21.9701C178.157 25.0586 175.654 27.5624 172.565 27.5624C169.476 27.5624 166.973 25.0586 166.973 21.9701Z" fill="url(#paint11_radial_105:284)"/>
<path d="M175.361 21.97C175.361 20.4257 174.109 19.1738 172.565 19.1738C171.02 19.1738 169.769 20.4257 169.769 21.97C169.769 23.5143 171.02 24.7662 172.565 24.7662C174.109 24.7662 175.361 23.5143 175.361 21.97Z" fill="url(#paint12_linear_105:284)"/>
<path d="M175.361 21.97C175.361 20.4257 174.109 19.1738 172.565 19.1738C171.02 19.1738 169.769 20.4257 169.769 21.97C169.769 23.5143 171.02 24.7662 172.565 24.7662C174.109 24.7662 175.361 23.5143 175.361 21.97Z" fill="url(#paint13_radial_105:284)"/>
<path d="M175.361 21.97C175.361 20.4257 174.109 19.1738 172.565 19.1738C171.02 19.1738 169.769 20.4257 169.769 21.97C169.769 23.5143 171.02 24.7662 172.565 24.7662C174.109 24.7662 175.361 23.5143 175.361 21.97Z" fill="url(#paint14_radial_105:284)"/>
<path d="M175.361 21.97C175.361 20.4257 174.109 19.1738 172.565 19.1738C171.02 19.1738 169.769 20.4257 169.769 21.97C169.769 23.5143 171.02 24.7662 172.565 24.7662C174.109 24.7662 175.361 23.5143 175.361 21.97Z" fill="url(#paint15_radial_105:284)"/>
<path d="M175.361 21.97C175.361 20.4257 174.109 19.1738 172.565 19.1738C171.02 19.1738 169.769 20.4257 169.769 21.97C169.769 23.5143 171.02 24.7662 172.565 24.7662C174.109 24.7662 175.361 23.5143 175.361 21.97Z" fill="url(#paint16_radial_105:284)"/>
</g>
</g>
<defs>
<filter id="filter0_i_105:284" x="0" y="0" width="309.605" height="596" filterUnits="userSpaceOnUse" color-interpolation-filters="sRGB">
<feFlood flood-opacity="0" result="BackgroundImageFix"/>
<feBlend mode="normal" in="SourceGraphic" in2="BackgroundImageFix" result="shape"/>
<feColorMatrix in="SourceAlpha" type="matrix" values="0 0 0 0 0 0 0 0 0 0 0 0 0 0 0 0 0 0 127 0" result="hardAlpha"/>
<feOffset dx="20" dy="10"/>
<feGaussianBlur stdDeviation="10"/>
<feComposite in2="hardAlpha" operator="arithmetic" k2="-1" k3="1"/>
<feColorMatrix type="matrix" values="0 0 0 0 0 0 0 0 0 0 0 0 0 0 0 0 0 0 0.15 0"/>
<feBlend mode="normal" in2="shape" result="effect1_innerShadow_105:284"/>
</filter>
<filter id="filter1_i_105:284" x="1.99707" y="0" width="285.61" height="586" filterUnits="userSpaceOnUse" color-interpolation-filters="sRGB">
<feFlood flood-opacity="0" result="BackgroundImageFix"/>
<feBlend mode="normal" in="SourceGraphic" in2="BackgroundImageFix" result="shape"/>
<feColorMatrix in="SourceAlpha" type="matrix" values="0 0 0 0 0 0 0 0 0 0 0 0 0 0 0 0 0 0 127 0" result="hardAlpha"/>
<feOffset/>
<feGaussianBlur stdDeviation="8"/>
<feComposite in2="hardAlpha" operator="arithmetic" k2="-1" k3="1"/>
<feColorMatrix type="matrix" values="0 0 0 0 0 0 0 0 0 0 0 0 0 0 0 0 0 0 0.32 0"/>
<feBlend mode="normal" in2="shape" result="effect1_innerShadow_105:284"/>
</filter>
<filter id="filter2_ii_105:284" x="1.99707" y="0" width="285.61" height="586" filterUnits="userSpaceOnUse" color-interpolation-filters="sRGB">
<feFlood flood-opacity="0" result="BackgroundImageFix"/>
<feBlend mode="normal" in="SourceGraphic" in2="BackgroundImageFix" result="shape"/>
<feColorMatrix in="SourceAlpha" type="matrix" values="0 0 0 0 0 0 0 0 0 0 0 0 0 0 0 0 0 0 127 0" result="hardAlpha"/>
<feOffset/>
<feGaussianBlur stdDeviation="5"/>
<feComposite in2="hardAlpha" operator="arithmetic" k2="-1" k3="1"/>
<feColorMatrix type="matrix" values="0 0 0 0 1 0 0 0 0 1 0 0 0 0 1 0 0 0 0.88 0"/>
<feBlend mode="normal" in2="shape" result="effect1_innerShadow_105:284"/>
<feColorMatrix in="SourceAlpha" type="matrix" values="0 0 0 0 0 0 0 0 0 0 0 0 0 0 0 0 0 0 127 0" result="hardAlpha"/>
<feOffset/>
<feGaussianBlur stdDeviation="2.5"/>
<feComposite in2="hardAlpha" operator="arithmetic" k2="-1" k3="1"/>
<feColorMatrix type="matrix" values="0 0 0 0 0 0 0 0 0 0 0 0 0 0 0 0 0 0 1 0"/>
<feBlend mode="normal" in2="effect1_innerShadow_105:284" result="effect2_innerShadow_105:284"/>
</filter>
<filter id="filter3_i_105:284" x="129.424" y="19.1738" width="31.1572" height="5.59241" filterUnits="userSpaceOnUse" color-interpolation-filters="sRGB">
<feFlood flood-opacity="0" result="BackgroundImageFix"/>
<feBlend mode="normal" in="SourceGraphic" in2="BackgroundImageFix" result="shape"/>
<feColorMatrix in="SourceAlpha" type="matrix" values="0 0 0 0 0 0 0 0 0 0 0 0 0 0 0 0 0 0 127 0" result="hardAlpha"/>
<feOffset/>
<feGaussianBlur stdDeviation="4"/>
<feComposite in2="hardAlpha" operator="arithmetic" k2="-1" k3="1"/>
<feColorMatrix type="matrix" values="0 0 0 0 0 0 0 0 0 0 0 0 0 0 0 0 0 0 0.48 0"/>
<feBlend mode="normal" in2="shape" result="effect1_innerShadow_105:284"/>
</filter>
<filter id="filter4_f_105:284" x="128.424" y="18.1738" width="33.1572" height="7.59241" filterUnits="userSpaceOnUse" color-interpolation-filters="sRGB">
<feFlood flood-opacity="0" result="BackgroundImageFix"/>
<feBlend mode="normal" in="SourceGraphic" in2="BackgroundImageFix" result="shape"/>
<feGaussianBlur stdDeviation="0.5" result="effect1_foregroundBlur_105:284"/>
</filter>
<linearGradient id="paint0_linear_105:284" x1="0.399414" y1="52.9278" x2="7.19014" y2="52.9278" gradientUnits="userSpaceOnUse">
<stop offset="0.109375" stop-color="#D1D1D1"/>
<stop offset="0.317708" stop-color="#E3E3E3"/>
<stop offset="0.552083" stop-color="#D2D2D2"/>
<stop offset="0.807292" stop-color="#E6E6E6"/>
</linearGradient>
<linearGradient id="paint1_linear_105:284" x1="282.414" y1="52.9278" x2="289.205" y2="52.9278" gradientUnits="userSpaceOnUse">
<stop offset="0.0988321" stop-color="#E6E6E6"/>
<stop offset="0.368786" stop-color="#D2D2D2"/>
<stop offset="0.624532" stop-color="#E3E3E3"/>
<stop offset="0.798581" stop-color="#D1D1D1"/>
</linearGradient>
<linearGradient id="paint2_linear_105:284" x1="223.895" y1="-2.79614" x2="223.895" y2="3.99385" gradientUnits="userSpaceOnUse">
<stop offset="0.238306" stop-color="#D1D1D1"/>
<stop offset="0.416703" stop-color="#E3E3E3"/>
<stop offset="0.700226" stop-color="#D2D2D2"/>
<stop offset="0.926408" stop-color="#E6E6E6"/>
</linearGradient>
<linearGradient id="paint3_linear_105:284" x1="23.0399" y1="10.6035" x2="262.64" y2="568.195" gradientUnits="userSpaceOnUse">
<stop stop-color="white" stop-opacity="0.16"/>
<stop offset="1" stop-color="white" stop-opacity="0.05"/>
</linearGradient>
<linearGradient id="paint4_linear_105:284" x1="144.802" y1="3.8315e-08" x2="144.802" y2="586" gradientUnits="userSpaceOnUse">
<stop stop-color="white" stop-opacity="0.64"/>
<stop offset="1" stop-color="white" stop-opacity="0.32"/>
</linearGradient>
<linearGradient id="paint5_linear_105:284" x1="0.399414" y1="52.9278" x2="7.19014" y2="52.9278" gradientUnits="userSpaceOnUse">
<stop offset="0.123628" stop-color="#8F8F8F"/>
<stop offset="0.365738" stop-color="#525252"/>
<stop offset="0.827659" stop-color="#141414"/>
</linearGradient>
<linearGradient id="paint6_linear_105:284" x1="282.414" y1="52.9278" x2="289.205" y2="52.9278" gradientUnits="userSpaceOnUse">
<stop offset="0.088176" stop-color="#141414"/>
<stop offset="0.536358" stop-color="#525252"/>
<stop offset="0.756584" stop-color="#8F8F8F"/>
</linearGradient>
<linearGradient id="paint7_linear_105:284" x1="223.895" y1="-2.79614" x2="223.895" y2="3.99385" gradientUnits="userSpaceOnUse">
<stop offset="0.420124" stop-color="#8F8F8F"/>
<stop offset="0.610413" stop-color="#525252"/>
<stop offset="0.976264" stop-color="#141414"/>
</linearGradient>
<linearGradient id="paint8_linear_105:284" x1="23.0399" y1="10.6035" x2="262.64" y2="568.195" gradientUnits="userSpaceOnUse">
<stop stop-color="white" stop-opacity="0.16"/>
<stop offset="1" stop-color="white" stop-opacity="0.05"/>
</linearGradient>
<linearGradient id="paint9_linear_105:284" x1="145.003" y1="19.1738" x2="145.003" y2="24.7662" gradientUnits="userSpaceOnUse">
<stop/>
<stop offset="0.483028" stop-color="#484848"/>
<stop offset="1"/>
</linearGradient>
<radialGradient id="paint10_radial_105:284" cx="0" cy="0" r="1" gradientUnits="userSpaceOnUse" gradientTransform="translate(173.564 24.5665) rotate(-127.694) scale(5.55299)">
<stop stop-color="#242424"/>
<stop offset="1" stop-color="#161616"/>
</radialGradient>
<radialGradient id="paint11_radial_105:284" cx="0" cy="0" r="1" gradientUnits="userSpaceOnUse" gradientTransform="translate(172.565 21.9701) rotate(90) scale(5.59237)">
<stop offset="0.463542" stop-opacity="0.25"/>
<stop offset="0.645833" stop-opacity="0"/>
</radialGradient>
<linearGradient id="paint12_linear_105:284" x1="172.565" y1="19.1738" x2="172.565" y2="24.7662" gradientUnits="userSpaceOnUse">
<stop stop-color="#0B528D"/>
<stop offset="0.276042" stop-color="#3625AF"/>
<stop offset="0.510417" stop-color="#070D17"/>
<stop offset="0.734375" stop-color="#16618F"/>
<stop offset="1" stop-color="#021762"/>
</linearGradient>
<radialGradient id="paint13_radial_105:284" cx="0" cy="0" r="1" gradientUnits="userSpaceOnUse" gradientTransform="translate(170.368 21.3708) rotate(58.3925) scale(3.04871)">
<stop stop-color="#070D17"/>
<stop offset="1" stop-color="#070D17" stop-opacity="0"/>
</radialGradient>
<radialGradient id="paint14_radial_105:284" cx="0" cy="0" r="1" gradientUnits="userSpaceOnUse" gradientTransform="translate(172.964 22.3695) rotate(106.699) scale(2.08521)">
<stop offset="0.146834" stop-color="#070D17"/>
<stop offset="1" stop-color="#070D17" stop-opacity="0"/>
</radialGradient>
<radialGradient id="paint15_radial_105:284" cx="0" cy="0" r="1" gradientUnits="userSpaceOnUse" gradientTransform="translate(173.364 21.3708) rotate(128.66) scale(1.27888)">
<stop stop-color="#6356D7"/>
<stop offset="1" stop-color="#15368A" stop-opacity="0"/>
</radialGradient>
<radialGradient id="paint16_radial_105:284" cx="0" cy="0" r="1" gradientUnits="userSpaceOnUse" gradientTransform="translate(172.565 21.97) rotate(90) scale(2.79618)">
<stop offset="0.828125" stop-opacity="0"/>
<stop offset="1" stop-opacity="0.85"/>
</radialGradient>
<clipPath id="clip0_105:284">
<rect width="290" height="490" fill="white"/>
</clipPath>
</defs>
</svg>
