<svg width="210" height="29" viewBox="0 0 210 29" fill="none" xmlns="http://www.w3.org/2000/svg">
<mask id="path-1-inside-1_162:55" fill="white">
<path fill-rule="evenodd" clip-rule="evenodd" d="M3.05176e-05 0C3.10231 0 6.2046 3.09256 6.22401 6.19482V13.6057C6.22401 21.56 12.6723 28.0083 20.6266 28.0083H189.436C197.39 28.0083 203.838 21.56 203.838 13.6057V0H6.2241H6.22401H3.05176e-05ZM203.838 5.44606C203.838 2.33402 206.172 0 209.284 0H203.838V5.44606Z"/>
</mask>
<path d="M6.22401 6.19482L6.72402 6.19482L6.724 6.19169L6.22401 6.19482ZM203.838 0H204.338V-0.5H203.838V0ZM203.838 0V-0.5H203.338V0H203.838ZM6.724 6.19169C6.71328 4.4791 5.85686 2.81057 4.62091 1.57977C3.38498 0.34899 1.71331 -0.5 3.05176e-05 -0.5V0.5C1.38903 0.5 2.81965 1.19729 3.91528 2.28835C5.0109 3.3794 5.71532 4.80828 5.72402 6.19794L6.724 6.19169ZM6.72401 13.6057V6.19482H5.72401V13.6057H6.72401ZM20.6266 27.5083C12.9484 27.5083 6.72401 21.2839 6.72401 13.6057H5.72401C5.72401 21.8362 12.3961 28.5083 20.6266 28.5083V27.5083ZM189.436 27.5083H20.6266V28.5083H189.436V27.5083ZM203.338 13.6057C203.338 21.2839 197.114 27.5083 189.436 27.5083V28.5083C197.666 28.5083 204.338 21.8362 204.338 13.6057H203.338ZM203.338 0V13.6057H204.338V0H203.338ZM6.2241 0.5H203.838V-0.5H6.2241V0.5ZM6.22401 0.5H6.2241V-0.5H6.22401V0.5ZM3.05176e-05 0.5H6.22401V-0.5H3.05176e-05V0.5ZM209.284 -0.5C205.896 -0.5 203.338 2.05788 203.338 5.44606H204.338C204.338 2.61017 206.448 0.5 209.284 0.5V-0.5ZM203.838 0.5H209.284V-0.5H203.838V0.5ZM204.338 5.44606V0H203.338V5.44606H204.338Z" fill="#1E1E20" style="mix-blend-mode:overlay" mask="url(#path-1-inside-1_162:55)"/>
<path fill-rule="evenodd" clip-rule="evenodd" d="M0 0C3.10641 0 6.21281 3.10079 6.22404 6.20718V13.6057C6.22404 21.56 12.6723 28.0083 20.6266 28.0083H189.436C197.39 28.0083 203.838 21.56 203.838 13.6057V0H6.22407H6.22404H0ZM203.838 5.44606C203.838 2.33402 206.172 0 209.284 0H203.838V5.44606Z" fill="#1E1E20"/>
<circle r="6" transform="matrix(-1 0 0 1 137.531 10)" fill="#333333"/>
<rect x="66.5311" y="6" width="50" height="8" rx="4" fill="#333333"/>
</svg>
